Coordinates
version=1
nRows=21
nColumns=33
inDegrees=yes

Units are S.I. units (second, meters, Newtons, ...)
Angles are in degrees.

endheader
time	ground_thorax_rot_x	ground_thorax_rot_y	ground_thorax_rot_z	ground_thorax_tx	ground_thorax_ty	ground_thorax_tz	clav_prot_r	clav_elev_r	scapula_abduction_r	scapula_elevation_r	scapula_upward_rot_r	scapula_winging_r	shoulder_elv_r	plane_of_elev_r	axial_rot_r	elbow_flexion_r	pro_sup_r	wrist_flex_r	wrist_dev_r	clav_prot_l	clav_elev_l	scapula_abduction_l	scapula_elevation_l	scapula_upward_rot_l	scapula_winging_l	shoulder_elv_l	plane_of_elev_l	axial_rot_l	elbow_flexion_l	pro_sup_l	wrist_flex_l	wrist_dev_l
     10.44000000	    -37.87283687	     -5.10710382	      6.89680558	    -57.27999248	    842.79553788	    -44.91797103	     20.26908735	    -45.00000000	     35.56585728	    -45.00000000	    -34.47846976	   1705.60576393	   1513.37814675	     24.26527943	    179.99999979	   1799.13010524	    163.96333055	     16.71705227	     15.19017198	      4.30589554	     28.74163711	    -30.40651240	    -45.00000000	    -45.00000000	   2234.71561507	  -3860.22255014	     20.61397403	   -179.99999979	    702.42414528	    -31.39615387	     -1.41407461	     -9.18634616
     10.45000000	    -37.81707340	     -4.99466188	      6.75990440	    -55.29721517	    842.17132250	    -45.13170896	     20.06820982	    -45.00000000	     35.71151886	    -45.00000000	    -33.65733121	   1705.68648671	   1513.32360099	     24.19822703	    179.99999979	   1799.02797512	    163.46760720	     16.59205466	     15.25528488	      4.49376291	     28.74790303	    -30.61770374	    -45.00000000	    -45.00000000	   2234.63061393	  -3860.16430174	     20.62911507	   -179.99999979	    702.32334326	    -30.52748666	     -1.33822730	     -9.04613279
     10.46000000	    -37.75060966	     -5.07011976	      6.80439078	    -53.22291583	    841.54911494	    -45.32724501	     20.15903451	    -45.00000000	     35.92774489	    -45.00000000	    -33.22265982	   1705.68999655	   1513.25713763	     24.25217588	    179.99999979	   1798.92521644	    162.98378297	     16.47001826	     15.33482154	      4.67215829	     28.76663253	    -30.74342379	    -45.00000000	    -45.00000000	   2234.63399096	  -3860.11615930	     20.70613490	   -179.99999979	    702.23559775	    -29.44576908	     -1.45979837	     -8.97391397
     10.47000000	    -37.66706548	     -4.99041218	      6.70150988	    -51.05493019	    840.93018249	    -45.50325889	     20.00850024	    -45.00000000	     36.12672157	    -45.00000000	    -32.40745046	   1705.75687244	   1513.22515415	     24.19770917	    179.99999979	   1798.85122396	    162.47331070	     16.31210312	     15.41047133	      4.82744021	     28.76790571	    -30.92802726	    -45.00000000	    -45.00000000	   2234.52420867	  -3860.08520133	     20.75168704	   -179.99999979	    702.15030860	    -28.15383145	     -1.39383544	     -8.83423459
     10.48000000	    -37.58446419	     -4.64961107	      6.31039170	    -48.79570686	    840.31387177	    -45.65801616	     19.55890550	    -45.00000000	     36.40733860	    -45.00000000	    -31.01222087	   1705.89777476	   1513.16454663	     24.03751238	    179.99999979	   1798.76293917	    161.92558635	     16.10002467	     15.51060200	      4.83606695	     28.69115676	    -31.26965770	    -45.00000000	    -45.00000000	   2234.31418682	  -3860.06154438	     20.73052520	   -179.99999979	    702.05153203	    -26.41281490	     -1.05142775	     -8.59783867
     10.49000000	    -37.53036935	     -4.46344231	      6.06535945	    -46.44124846	    839.69533278	    -45.79109629	     19.37179162	    -45.00000000	     36.67056678	    -45.00000000	    -29.94767614	   1705.96503636	   1513.05366124	     24.01387362	    179.99999979	   1798.75704157	    161.48159153	     15.89006633	     15.58123864	      4.99199183	     28.63790403	    -31.51678535	    -45.00000000	    -45.00000000	   2234.23624333	  -3860.00530554	     20.80360379	   -179.99999979	    701.96342591	    -24.42370608	     -0.95792440	     -8.43466292
     10.50000000	    -37.47649225	     -4.27584960	      5.82016580	    -43.98446511	    839.06366644	    -45.90189731	     19.22195842	    -45.00000000	     36.95654287	    -45.00000000	    -28.85797394	   1706.00224770	   1512.91777201	     24.00446511	    179.99999979	   1798.75847658	    161.14497573	     15.67719389	     15.64268542	      5.03950530	     28.55607175	    -31.76735664	    -45.00000000	    -45.00000000	   2234.14833974	  -3859.93538974	     20.87973704	   -179.99999979	    701.90122233	    -22.26723760	     -0.86398317	     -8.27275753
     10.51000000	    -37.38851663	     -4.17962651	      5.68285307	    -41.43037093	    838.41354197	    -45.99265119	     19.13996960	    -45.00000000	     37.23753585	    -45.00000000	    -27.98157476	   1706.04398950	   1512.85600009	     23.92436851	    179.99999979	   1798.63498415	    160.94501481	     15.51657576	     15.73633788	      5.47674394	     28.64683898	    -31.98758717	    -45.00000000	    -45.00000000	   2234.02341765	  -3859.94878140	     20.93738076	   -179.99999979	    701.86427462	    -20.48078200	     -0.83820357	     -8.12931595
     10.52000000	    -37.33502221	     -3.97221879	      5.40523288	    -38.79588947	    837.74095054	    -46.06669256	     18.94894808	    -45.00000000	     37.58372893	    -45.00000000	    -26.75330451	   1706.07553603	   1512.72910105	     23.90547179	    179.99999979	   1798.61570810	    160.84238699	     15.32111444	     15.77968125	      5.49514590	     28.54165643	    -32.28397857	    -45.00000000	    -45.00000000	   2233.94807838	  -3859.86169573	     21.00343212	   -179.99999979	    701.82141989	    -18.44984782	     -0.70651110	     -7.97388482
     10.53000000	    -37.27373099	     -3.79654218	      5.15857255	    -36.09636271	    837.04514262	    -46.12881865	     18.80955145	    -45.00000000	     37.93650336	    -45.00000000	    -25.63652084	   1706.11343632	   1512.61533125	     23.87374919	    179.99999979	   1798.60381757	    160.87511737	     15.13673857	     15.82470492	      5.73025386	     28.53900919	    -32.56728360	    -45.00000000	    -45.00000000	   2233.84303901	  -3859.84540234	     21.05359959	   -179.99999979	    701.81234629	    -16.45969766	     -0.62814249	     -7.83226089
     10.54000000	    -37.21133949	     -3.62291572	      4.95026396	    -33.33817483	    836.31904161	    -46.18180190	     18.64835516	    -45.00000000	     38.28499630	    -45.00000000	    -24.49549100	   1706.15036343	   1512.50044991	     23.82068743	    179.99999979	   1798.56496060	    161.01810979	     14.97159700	     15.86052904	      5.97397577	     28.53967352	    -32.88343688	    -45.00000000	    -45.00000000	   2233.75488801	  -3859.84571178	     21.08609622	   -179.99999979	    701.76081259	    -14.56827926	     -0.53120504	     -7.68223615
     10.55000000	    -37.13570408	     -3.50501699	      4.79564903	    -30.51805192	    835.55481266	    -46.22845400	     18.51294518	    -45.00000000	     38.62277948	    -45.00000000	    -23.45252881	   1706.15583903	   1512.40799398	     23.76837890	    179.99999979	   1798.53290087	    161.27695349	     14.82118707	     15.88431191	      6.20603796	     28.53520012	    -33.12506173	    -45.00000000	    -45.00000000	   2233.65336093	  -3859.81816491	     21.14766148	   -179.99999979	    701.73324947	    -12.68855500	     -0.47084707	     -7.54951241
     10.56000000	    -37.06549884	     -3.34867260	      4.61585626	    -27.63369657	    834.74391320	    -46.26899085	     18.39801693	    -45.00000000	     39.01709077	    -45.00000000	    -22.30768815	   1706.13253241	   1512.28361675	     23.72735141	    179.99999979	   1798.51760080	    161.65028804	     14.68337479	     15.89670680	      6.41593691	     28.51310346	    -33.39888413	    -45.00000000	    -45.00000000	   2233.56045520	  -3859.78706399	     21.20453564	   -179.99999979	    701.69196372	    -10.80671809	     -0.41032222	     -7.41272356
     10.57000000	    -36.99293521	     -3.24928042	      4.49581237	    -24.67049500	    833.87537022	    -46.30281333	     18.29913030	    -45.00000000	     39.41523219	    -45.00000000	    -21.24930722	   1706.15655274	   1512.18351449	     23.63070684	    179.99999979	   1798.48806931	    162.07354699	     14.55577166	     15.91240564	      6.76166250	     28.56484962	    -33.66813998	    -45.00000000	    -45.00000000	   2233.42738975	  -3859.82411809	     21.22014281	   -179.99999979	    701.66919442	     -9.09123059	     -0.32550493	     -7.28383979
     10.58000000	    -36.93235155	     -3.03294788	      4.24210265	    -21.60818904	    832.93542442	    -46.32812857	     18.09861720	    -45.00000000	     39.80565148	    -45.00000000	    -19.98719776	   1706.15046988	   1512.04907925	     23.60530223	    179.99999979	   1798.53401988	    162.60822003	     14.43927899	     15.87967807	      6.94262911	     28.50758177	    -34.01911216	    -45.00000000	    -45.00000000	   2233.33893958	  -3859.79852462	     21.27635329	   -179.99999979	    701.66538111	     -7.25057552	     -0.23559598	     -7.15797136
     10.59000000	    -36.86962928	     -2.77188518	      3.94561655	    -18.44891186	    831.92078686	    -46.34424666	     17.93472959	    -45.00000000	     40.28560659	    -45.00000000	    -18.63188487	   1706.10205184	   1511.89551854	     23.55734470	    179.99999979	   1798.56996534	    163.22802251	     14.33935514	     15.86190021	      7.20903246	     28.47542310	    -34.38186270	    -45.00000000	    -45.00000000	   2233.22416597	  -3859.77428875	     21.34543352	   -179.99999979	    701.66428638	     -5.30590061	     -0.13516144	     -7.02027901
     10.60000000	    -36.81080820	     -2.48636564	      3.61434296	    -15.20042785	    830.83011244	    -46.35086307	     17.74472687	    -45.00000000	     40.77105057	    -45.00000000	    -17.23650213	   1706.05382586	   1511.73071882	     23.51115626	    179.99999979	   1798.62209819	    163.88810427	     14.24674909	     15.83377096	      7.51105052	     28.44763196	    -34.78702263	    -45.00000000	    -45.00000000	   2233.11160493	  -3859.75895090	     21.40408012	   -179.99999979	    701.68286880	     -3.29335438	     -0.02423700	     -6.88323183
     10.61000000	    -36.74004290	     -2.18601314	      3.23965390	    -11.87428662	    829.66270832	    -46.34762416	     17.52611231	    -45.00000000	     41.31933616	    -45.00000000	    -15.76629813	   1705.99537837	   1511.59624549	     23.43373243	    179.99999979	   1798.62818303	    164.57677528	     14.16947681	     15.81298049	      7.82827147	     28.42342237	    -35.15227528	    -45.00000000	    -45.00000000	   2232.96197696	  -3859.73205210	     21.47987723	   -179.99999979	    701.73639052	     -1.19421763	      0.14176964	     -6.75346500
     10.62000000	    -36.69632971	     -1.84526662	      2.85368772	     -8.47982112	    828.41767249	    -46.33436172	     17.33504465	    -45.00000000	     41.87025551	    -45.00000000	    -14.24342012	   1705.92714123	   1511.41220313	     23.33961558	    179.99999979	   1798.67686997	    165.27344048	     14.07840750	     15.78318700	      8.17853895	     28.40784195	    -35.58602879	    -45.00000000	    -45.00000000	   2232.83186471	  -3859.69956398	     21.54319387	   -179.99999979	    701.79984218	      0.89254336	      0.31879429	     -6.63175916
     10.63000000	    -36.63840062	     -1.39384108	      2.32070919	     -5.02927608	    827.09611799	    -46.31021736	     17.09010876	    -45.00000000	     42.52738185	    -45.00000000	    -12.49111368	   1705.80046309	   1511.23022311	     23.26764900	    179.99999979	   1798.73923843	    166.06934536	     13.99809256	     15.74690677	      8.57390939	     28.38100596	    -36.05640404	    -45.00000000	    -45.00000000	   2232.69844230	  -3859.63931360	     21.63768396	   -179.99999979	    701.86322051	      3.15736083	      0.51221806	     -6.50311087
     10.64000000	    -36.57175706	     -0.86407205	      1.68921547	     -1.52693735	    825.69830230	    -46.27401199	     16.81033491	    -45.00000000	     43.31989948	    -45.00000000	    -10.48818816	   1705.61156545	   1511.06536837	     23.14060442	    179.99999979	   1798.79729536	    166.84999585	     13.90859892	     15.70989773	      9.06016042	     28.37952097	    -36.63014464	    -45.00000000	    -45.00000000	   2232.57677438	  -3859.61116963	     21.71872521	   -179.99999979	    701.96177855	      5.61131019	      0.79692002	     -6.38753117
